<?xml version="1.0" encoding="UTF-8" standalone="no"?>
<!-- Created with Inkscape (http://www.inkscape.org/) -->

<svg
   width="37.185966mm"
   height="24.875872mm"
   viewBox="0 0 37.185967 24.875871"
   version="1.1"
   id="svg5"
   xmlns:xlink="http://www.w3.org/1999/xlink"
   xmlns="http://www.w3.org/2000/svg"
   xmlns:svg="http://www.w3.org/2000/svg">
  <defs
     id="defs2">
    <linearGradient
       id="linearGradient85270">
      <stop
         style="stop-color:#1a3061;stop-opacity:1"
         offset="0"
         id="stop85266" />
      <stop
         style="stop-color:#1b6bb4;stop-opacity:1"
         offset="1"
         id="stop85268" />
    </linearGradient>
    <linearGradient
       id="linearGradient16473">
      <stop
         style="stop-color:#2a2a6c;stop-opacity:1"
         offset="0"
         id="stop16469" />
      <stop
         style="stop-color:#3b6f90;stop-opacity:1"
         offset="1"
         id="stop16471" />
    </linearGradient>
    <linearGradient
       xlink:href="#linearGradient16473"
       id="linearGradient16475"
       x1="152.65892"
       y1="44.21088"
       x2="167.17867"
       y2="27.299961"
       gradientUnits="userSpaceOnUse" />
    <linearGradient
       xlink:href="#linearGradient85270"
       id="linearGradient85272"
       x1="152.70709"
       y1="61.101845"
       x2="69.694336"
       y2="62.540714"
       gradientUnits="userSpaceOnUse" />
  </defs>
  <g
     id="layer1"
     transform="translate(-101.60065,-19.600129)">
    <path
       style="fill:#cf2722;stroke-width:0.0846667"
       d="m 103.02997,44.349343 c -0.53634,-0.165335 -1.03611,-0.621056 -1.26527,-1.15374 -0.15981,-0.371484 -0.1846,-0.549378 -0.15099,-1.083183 0.0364,-0.577958 0.21953,-1.117807 1.92553,-5.676367 1.03692,-2.770717 2.6258,-7.018867 3.53085,-9.440334 1.15525,-3.090889 1.74378,-4.554025 1.97526,-4.910666 0.77601,-1.195612 2.2411,-2.193185 3.53772,-2.408821 0.40298,-0.06702 4.03513,-0.0874 12.54749,-0.07042 l 11.98034,0.0239 0.44511,0.201191 c 0.84373,0.38136 1.24068,1.040299 1.23041,2.042475 -0.006,0.575979 -0.0657,0.792389 -0.64356,2.328333 -0.83245,2.212704 -4.54539,12.157597 -5.61085,15.028334 -0.66547,1.793035 -0.91912,2.370949 -1.26291,2.877398 -0.50137,0.738581 -1.33367,1.472048 -2.09658,1.847631 -1.12939,0.555995 -0.31078,0.524902 -13.64825,0.518407 -10.11485,-0.0049 -12.17393,-0.02538 -12.4943,-0.124146 z"
       id="path16336" />
    <path
       style="fill:#ffffff;stroke-width:0.0846667"
       d="m 114.39142,32.816553 c 0.85393,-2.095573 2.37977,-3.717291 4.45757,-4.737667 l 0.48159,-0.2365 6.57412,-0.02317 c 5.06652,-0.01785 6.5934,-0.04698 6.65815,-0.127 0.11367,-0.140486 2.55806,-6.247027 2.55806,-6.390519 0,-0.09443 -1.20717,-0.109043 -7.13317,-0.08632 l -7.13316,0.02735 -0.97367,0.262669 c -2.39687,0.646612 -4.73223,1.962098 -7.01695,3.952595 -1.32766,1.15669 -2.84524,2.973164 -3.71356,4.444987 -0.41311,0.700227 -1.37683,2.851269 -1.37683,3.073105 0,0.04031 1.46767,0.0733 3.26148,0.0733 h 3.26149 z"
       id="path16340" />
    <path
       style="fill:#ffffff;fill-opacity:1;stroke-width:0.0425"
       d="m 104.2055,43.013979 c -0.16372,-0.03741 -0.29619,-0.108532 -0.2944,-0.158043 0.002,-0.04951 0.55245,-1.459235 1.2237,-3.132725 l 1.22044,-3.042708 6.61458,-0.06615 6.61458,-0.06615 0.8599,-0.459793 c 1.18861,-0.635561 3.24307,-2.698705 3.75767,-3.77354 0.20901,-0.436563 0.44618,-0.837488 0.52706,-0.890942 0.0809,-0.05346 1.50881,-0.09811 3.17321,-0.09922 l 3.02617,-0.0021 -0.0807,0.403337 c -0.12334,0.616709 -1.16963,2.640959 -1.95837,3.788841 -0.92863,1.351476 -3.18543,3.59946 -4.67476,4.65651 -1.41608,1.00506 -3.71461,2.143432 -5.09323,2.522479 -0.92771,0.255072 -1.43495,0.276548 -7.80521,0.330476 -3.74716,0.03172 -6.94696,0.02706 -7.11067,-0.01035 z"
       id="path163752" />
  </g>
</svg>
